
<svg width="45" height="16" viewBox="0 0 45 16" fill="none" xmlns="http://www.w3.org/2000/svg">
<path d="M8.40625 2.436V4.47H3.16825V7.692H7.18225V9.69H3.16825V15H0.64825V2.436H8.40625ZM19.4632 9.798C19.4632 10.158 19.4392 10.482 19.3912 10.77H12.1012C12.1612 11.49 12.4132 12.054 12.8572 12.462C13.3012 12.87 13.8472 13.074 14.4952 13.074C15.4312 13.074 16.0972 12.672 16.4932 11.868H19.2112C18.9232 12.828 18.3712 13.62 17.5552 14.244C16.7392 14.856 15.7372 15.162 14.5492 15.162C13.5892 15.162 12.7252 14.952 11.9572 14.532C11.2012 14.1 10.6072 13.494 10.1752 12.714C9.75517 11.934 9.54517 11.034 9.54517 10.014C9.54517 8.982 9.75517 8.076 10.1752 7.296C10.5952 6.516 11.1832 5.916 11.9392 5.496C12.6952 5.076 13.5652 4.866 14.5492 4.866C15.4972 4.866 16.3432 5.07 17.0872 5.478C17.8432 5.886 18.4252 6.468 18.8332 7.224C19.2532 7.968 19.4632 8.826 19.4632 9.798ZM16.8532 9.078C16.8412 8.43 16.6072 7.914 16.1512 7.53C15.6952 7.134 15.1372 6.936 14.4772 6.936C13.8532 6.936 13.3252 7.128 12.8932 7.512C12.4732 7.884 12.2152 8.406 12.1192 9.078H16.8532ZM30.5725 9.798C30.5725 10.158 30.5485 10.482 30.5005 10.77H23.2105C23.2705 11.49 23.5225 12.054 23.9665 12.462C24.4105 12.87 24.9565 13.074 25.6045 13.074C26.5405 13.074 27.2065 12.672 27.6025 11.868H30.3205C30.0325 12.828 29.4805 13.62 28.6645 14.244C27.8485 14.856 26.8465 15.162 25.6585 15.162C24.6985 15.162 23.8345 14.952 23.0665 14.532C22.3105 14.1 21.7165 13.494 21.2845 12.714C20.8645 11.934 20.6545 11.034 20.6545 10.014C20.6545 8.982 20.8645 8.076 21.2845 7.296C21.7045 6.516 22.2925 5.916 23.0485 5.496C23.8045 5.076 24.6745 4.866 25.6585 4.866C26.6065 4.866 27.4525 5.07 28.1965 5.478C28.9525 5.886 29.5345 6.468 29.9425 7.224C30.3625 7.968 30.5725 8.826 30.5725 9.798ZM27.9625 9.078C27.9505 8.43 27.7165 7.914 27.2605 7.53C26.8045 7.134 26.2465 6.936 25.5865 6.936C24.9625 6.936 24.4345 7.128 24.0025 7.512C23.5825 7.884 23.3245 8.406 23.2285 9.078H27.9625Z" fill="white"/>
<path d="M40.1699 2.436V4.47H34.9319V7.692H38.9459V9.69H34.9319V15H32.4119V2.436H40.1699ZM43.2348 3.84C42.7908 3.84 42.4188 3.702 42.1188 3.426C41.8308 3.138 41.6868 2.784 41.6868 2.364C41.6868 1.944 41.8308 1.596 42.1188 1.32C42.4188 1.032 42.7908 0.887999 43.2348 0.887999C43.6788 0.887999 44.0448 1.032 44.3328 1.32C44.6328 1.596 44.7828 1.944 44.7828 2.364C44.7828 2.784 44.6328 3.138 44.3328 3.426C44.0448 3.702 43.6788 3.84 43.2348 3.84ZM44.4768 5.028V15H41.9568V5.028H44.4768Z" fill="#5CE1E6"/>
</svg>
