
<svg width="100" height="100" viewBox="0 0 81 81" fill="none" xmlns="http://www.w3.org/2000/svg">
<rect width="100" height="100" fill="#1E1E1E"/>
<circle cx="40.5" cy="40.5" r="40.5" fill="#FBFBFB"/>
<path d="M55 25C55 33.2843 48.2843 40 40 40C31.7157 40 25 33.2843 25 25C25 16.7157 31.7157 10 40 10C48.2843 10 55 16.7157 55 25Z" fill="#1E7A80"/>
<path d="M15.63 65.6679C15.793 59.5474 18.3429 53.7286 22.7445 49.4328C27.1462 45.1371 33.0573 42.6985 39.237 42.6289C45.4168 42.5594 51.3847 44.8642 55.888 49.0597C60.3913 53.2552 63.0799 59.015 63.3893 65.1302L39.5205 66.3039L15.63 65.6679Z" fill="#38828C"/>
</svg>
